<?xml version="1.0" encoding="utf-8"?>
<svg version="1.1" xmlns="http://www.w3.org/2000/svg" xmlns:xlink="http://www.w3.org/1999/xlink" width="100px" height="100px" viewBox="-10 -10 20 20">
<path d="M6.223,4.641c0.15,0.263,0.161,0.597-0.002,0.877C6.058,5.8,5.763,5.956,5.46,5.956H-5.461
	C-5.764,5.954-6.058,5.797-6.22,5.517c-0.163-0.282-0.151-0.616,0-0.878l5.46-9.458C-0.607-5.082-0.324-5.258,0-5.258
	c0.325,0,0.608,0.176,0.761,0.438L6.223,4.641z M-0.755-0.968l0.39,3.706h0.78l0.39-3.706v-1.95h-1.561V-0.968z M-0.706,3.322v1.56
	h1.462v-1.56H-0.706z"/>
</svg>
