<?xml version="1.0" encoding="utf-8"?>
<svg version="1.1" xmlns="http://www.w3.org/2000/svg" xmlns:xlink="http://www.w3.org/1999/xlink" width="100px" height="100px" viewBox="-10 -10 20 20">
	<style>
		circle, path, polygon, rect {
			--element-fg: #222;
			fill: var(--element-fg);
		}
	</style>
	<g transform="scale(0.2,0.2) translate(-30,-25)">
		<path d="M21.33,3.23V0h27V3.24H40.73v3h1.18c2.28,0,4.56,0,6.84,0a5.44,5.44,0,0,1,5.74,5.1,8,8,0,0,0,.21,1.3,2.36,2.36,0,0,0,2.44,1.87l6.36,0a2.12,2.12,0,0,1,.32.17v6.1h3.31v-6.1a7.6,7.6,0,0,1,.8-.14c2.72,0,5.44,0,8.16,0a1,1,0,0,1,1.15.89c.58,2.49,1.27,5,1.84,7.44a15.64,15.64,0,0,1,.39,3.2c0,3.4-.11,6.8,0,10.2a32.26,32.26,0,0,1-1.45,10.38c-.31,1.12-.53,2.26-.87,3.36-.11.34-.49.84-.75.84-3,.06-6.07,0-9.24,0V44.62h-3.4c0,1.06,0,2.05,0,3A5.38,5.38,0,0,1,58.57,53c-9.56,0-19.12,0-28.68,0a6,6,0,0,1-4.2-2c-2.1-2.08-4.24-4.13-6.31-6.23a3.32,3.32,0,0,0-2.66-1.1c-1.11,0-2.24,0-3.36,0A5.37,5.37,0,0,1,8.1,38.18c0-3.4,0-6.8,0-10.29H3.76V40.42c-2.17-.3-2.55-.72-2.55-2.66,0-3.32,0-6.64,0-10,0-.41,0-1-.3-1.21-1-.77-.9-1.78-.9-2.82C0,21,0,18.25,0,15.49A3,3,0,0,1,.8,13.75c.8-.91,1.76-1.69,2.86-2.73V24.31H8.1V19.83c0-.84,0-1.68,0-2.52a5.48,5.48,0,0,1,5.3-5.56c.36,0,.72,0,1.08,0,2.23,0,2.38-.15,3.31-2.18A5.34,5.34,0,0,1,22.88,6.2c2,0,4.06,0,6.18,0v-3Z"/>
	</g>
</svg>