<?xml version="1.0" encoding="utf-8"?>
<svg version="1.1" xmlns="http://www.w3.org/2000/svg" xmlns:xlink="http://www.w3.org/1999/xlink" width="100px" height="100px" viewBox="-10 -10 20 20">
<path d="M4.061,1.931c0.048-0.048,0.993,0.283,1.117,0.305C5.571,2.307,5.994,2.335,6.38,2.207C7.304,1.898,7.48,0.871,7.045,0.085
	C6.757-0.436,6.215-0.954,5.706-1.26C5.608-1.747,5.218-2.526,4.633-3.502C3.658-4.867,2.683-5.647,1.805-5.939
	c-0.481-0.069-1.544-0.068-1.17,0.682L-0.047-5.55c-0.487-0.098-0.877-0.098-1.17,0.098c-0.439,0.293-0.024,1.071,0.139,1.387
	c0.296,0.57,0.696,1.069,1.146,1.524c0.392,0.397,0.809,0.776,1.237,1.133c0.79,0.657,1.354,0.621,1.354,0.621
	C1.688-0.036,0.855-0.873-0.135-1.266c-1.862-0.737-3.469,0.033-4.512,1.623c-0.044,0.067-0.542,0.747-0.471,0.821
	c-0.483-0.506-1.174-1.266-1.853-0.585c-1.023,1.022,0.828,2.514,1.848,2.439c0.142,0.363,0.303,0.731,0.492,1.072
	c0.93,1.675,2.964,1.903,4.693,1.856c1.051-0.028,4.575-0.009,4.539-1.699c-0.014-0.669-1.03-0.839-1.528-0.839
	C3.427,3.186,3.752,2.241,4.061,1.931z"/>
</svg>
