<?xml version="1.0" encoding="utf-8"?>
<svg version="1.1" xmlns="http://www.w3.org/2000/svg" xmlns:xlink="http://www.w3.org/1999/xlink" width="100px" height="100px" viewBox="-10 -10 20 20">
	<style>
		circle, path, polygon, rect {
			--element-fg: #222;
			fill: var(--element-fg);
		}
	</style>
	<path d="M5.438,0.74c0.877-1.95,1.17-3.218,0.877-3.706C5.156-5.517,4.179-0.723,3.098-0.723C2.806-0.82,2.806-1.503,3.195-2.771
		c0.247-0.84,0.607-1.918,0.494-2.814C3.595-6.337,2.524-7.169,1.983-6.34C1.551-5.676,1.615-4.198,1.537-3.453
		C1.245-1.892,1.05-1.308,0.855-1.698C0.66-2.087,0.562-2.867,0.66-4.331c0.045-0.636,0.211-1.756-0.108-2.358
		C0.208-7.341-0.831-7.615-1.227-6.888c-0.345,0.635-0.059,1.816,0.034,2.46c0.097,1.365,0.097,2.145,0,2.341
		c-0.098,0.389-0.391,0-0.781-1.073c-0.389-1.268-0.682-2.048-0.779-2.341C-2.918-6.32-4.099-6.3-4.448-5.665
		c-0.443,0.804,0.39,2.278,0.72,2.992c0.585,1.17,0.683,2.243,0.585,3.121c-0.098,0.487-0.585,0.292-1.462-0.78
		c-0.346-0.423-1.034-1.211-1.569-0.654C-6.891-0.244-5.882,1.36-5.386,1.911c0.292,0.487,1.365,1.463,3.023,2.925
		c0.488,0.39,0.488,0.975,0.195,1.755c0,0,0.309,0.729,2.97,0.729c2.662,0,2.986-0.729,2.986-0.729
		C3.366,5.94,3.391,4.836,3.683,4.349C4.171,3.471,4.853,2.301,5.438,0.74z"/>
</svg>
