<?xml version="1.0" encoding="utf-8"?>
<svg version="1.1" xmlns="http://www.w3.org/2000/svg" xmlns:xlink="http://www.w3.org/1999/xlink" width="100px" height="100px" viewBox="-10 -10 20 20">
	<g transform="scale(9,9)">
		<rect x="-0.575" y="0.35" width="1.15" height="0.2"></rect>
		<g transform="translate(-0,-0.6)">
			<path d="M-0.1,0 C-0.4,0.1,0.2,0.75,-0.1,0.85 L0.1,0.85 C0.4,0.75,-0.2,0.1,0.1,0"></path>
		</g>
		<g transform="translate(-0.375,-0.6)">
			<path d="M-0.1,0 C-0.4,0.1,0.2,0.75,-0.1,0.85 L0.1,0.85 C0.4,0.75,-0.2,0.1,0.1,0"></path>
		</g>
		<g transform="translate(0.375,-0.6)">
			<path d="M-0.1,0 C-0.4,0.1,0.2,0.75,-0.1,0.85 L0.1,0.85 C0.4,0.75,-0.2,0.1,0.1,0"></path>
		</g>
	</g>
</svg>
