<?xml version="1.0" encoding="utf-8"?>
<svg version="1.1" xmlns="http://www.w3.org/2000/svg" xmlns:xlink="http://www.w3.org/1999/xlink" width="100px" height="100px" viewBox="-10 -10 20 20">
<path fill-opacity="0" d="M3.654-6.329C2.579-6.952,1.333-7.314,0.001-7.314S-2.576-6.952-3.652-6.33
	c-2.186,1.265-3.661,3.622-3.661,6.329v0V0c0,2.707,1.474,5.065,3.66,6.329c1.077,0.622,2.322,0.983,3.654,0.983
	S2.579,6.95,3.654,6.328C5.839,5.063,7.314,2.706,7.314,0v-0.001v-0.001C7.314-2.708,5.839-5.064,3.654-6.329z"/>
<path d="M0.002-0.001L0.002-0.001L0.002-0.001L0.002-0.001z M3.654-6.329C2.579-6.952,1.333-7.314,0.001-7.314
	S-2.576-6.952-3.652-6.33l3.654,6.329L3.654-6.329z M0.002-0.001l3.654,6.329C5.84,5.063,7.314,2.706,7.314,0v-0.001H0.002z
	 M-7.313-0.001L-7.313-0.001c0,2.708,1.474,5.065,3.66,6.33l3.654-6.33H-7.313z"/>
</svg>
