<?xml version="1.0" encoding="utf-8"?>
<svg version="1.1" xmlns="http://www.w3.org/2000/svg" xmlns:xlink="http://www.w3.org/1999/xlink" width="100px" height="100px" viewBox="-10 -10 20 20">
<path d="M3.713-3.799c-0.39,0.488-0.585,1.17-0.682,2.048C2.934-1.946,2.738-2.043,2.641-2.238C1.568-3.311,0.3-3.896-1.261-3.896
	c-1.656,0-2.925,0.585-4.095,1.658c-0.975,1.17-1.561,2.535-1.561,4.095c0,0.195,0,0.391,0.098,0.585
	C-6.739,2.6-7.487,3.63-7.486,3.958c0.001,0.617,0.575,1.019,1.156,1.019c1.17,0,1.853-0.78,2.048-2.438h5.948
	c0.097,1.658,0.878,2.438,2.146,2.438c0.495,0,1.138-0.502,1.12-1.021C4.915,3.491,4.429,2.939,4.201,2.539
	c0.098-0.195,0.196-0.487,0.196-0.683c0,0,0.097,0,0.195-0.097C5.246,1.433,5.634,0.87,5.774,0.162
	c0.142-0.713-0.052-1.539,0.279-2.206c0.293,0,0.585-0.195,0.878-0.39c0.909-0.606,0.617-1.94-0.251-2.367
	C5.634-5.316,4.382-4.636,3.713-3.799z"/>
</svg>
