<?xml version="1.0" encoding="utf-8"?>
<svg version="1.1" xmlns="http://www.w3.org/2000/svg" xmlns:xlink="http://www.w3.org/1999/xlink" width="100px" height="100px" viewBox="-10 -10 20 20">
<path d="M7.753-0.001c-0.39-0.78-0.877-1.463-1.463-2.242C4.633-4.292,2.487-5.364-0.048-5.364c-2.535,0-4.583,1.073-6.338,3.121
	c-0.585,0.779-1.072,1.462-1.365,2.242c0.292,0.877,0.78,1.561,1.365,2.243c1.756,2.145,3.804,3.12,6.338,3.12
	c2.536,0,4.681-0.975,6.338-3.12C6.876,1.56,7.363,0.876,7.753-0.001z M4.827-1.561C5.218-1.073,5.607-0.488,5.9,0.097
	c-0.292,0.585-0.682,1.17-1.073,1.561c-1.364,1.657-2.925,2.34-4.777,2.34c-1.95,0-3.608-0.683-4.876-2.34
	c-0.488-0.391-0.78-0.975-1.072-1.561c0.292-0.585,0.585-1.171,1.072-1.658c1.268-1.463,2.926-2.34,4.876-2.34
	C1.902-3.901,3.463-3.024,4.827-1.561z M1.464-0.001c0,0.808-0.655,1.463-1.463,1.463c-0.809,0-1.464-0.655-1.464-1.463
	c0-0.809,0.655-1.464,1.464-1.464C0.809-1.465,1.464-0.81,1.464-0.001z M0-3.464c-1.913,0-3.463,1.55-3.463,3.463
	c0,1.911,1.55,3.462,3.463,3.462c1.913,0,3.463-1.551,3.463-3.462C3.463-1.914,1.913-3.464,0-3.464z"/>
</svg>
